<svg xmlns="http://www.w3.org/2000/svg" enable-background="new 0 0 1450 1080" viewBox="0 0 1450 1080"><path fill="#2a94f4" d="M330.799,970.421c0,0-371.141-235.194-303.159-542.733s563.28,84.168,579.466-158.625
		s543.482-172.869,540.48,165.099c-3.001,337.969,84.308,206.371,116.68,146.888c32.372-59.483,239.556,27.923,139.201,189.785
		s-323.724,297.826-637.737,145.676S601.586,1066.414,330.799,970.421z" opacity=".13"/><ellipse cx="869.838" cy="1039.903" fill="#2a94f4" opacity=".13" rx="322.915" ry="40.097"/><ellipse cx="379.043" cy="1039.903" fill="#2a94f4" opacity=".13" rx="126.029" ry="26.914"/><circle cx="888.736" cy="703.106" r="336.797" fill="#0b4870"/><path fill="#ffe3ca" d="M479.774 548.816c0 0 94.927-19.276 109.617 24.151s8.324 76.972 8.324 76.972c1.959 22.049-9.304 54.68-19.097 46.519-9.793-8.161-11.752-23.259-.979-37.827s-2.217-49.498-9.073-73.398c-6.855-23.899-79.497-12.266-79.497-12.266L479.774 548.816zM344.027 645.157c0 0-46.876 39.245-77.4 53.417-30.524 14.172-75.22 22.893-75.22 22.893s-23.983 7.631-30.524 34.885c0 0 0 14.172 18.532 0 18.533-14.172 19.623-25.073 40.335-27.254s106.624-24.507 143.506-60.958C363.256 668.141 361.197 636.163 344.027 645.157z"/><path fill="#0e538c" d="M382.783 1013.125c0 0-13.741 12.495-29.234 12.495-15.493 0-17.124 9.785-17.124 9.785l39.971 4.077c0 0 10.586-6.524 14.663 0l-.815 2.344 11.212 2.039c0 0 3.16-11.416 1.529-16.716-1.631-5.3-4.179-10.499-4.179-10.499l-16.639-3.661M725.991 878.006c0 0 15.721 9.001 19.946 23.175 4.225 14.174 14.047 12.87 14.047 12.87l-6.993-37.732c0 0-9.139-7.821-3.999-13.415l2.469.076-1.104-10.84c0 0-11.802.37-16.437 3.377-4.635 3.006-8.922 6.822-8.922 6.822v14.558"/><path fill="#2a94f4" d="M509.151,676.142c0,0,24.528,4.361,46.331,45.786c21.803,41.426,28.344,103.564,28.344,103.564
			S656.321,846.205,725,862.557v15.262c0,0-115.556-5.451-154.801-11.992c-39.245-6.541-36.52-99.203-67.044-89.937
			c-18.805,5.709-44.151,83.396-59.413,107.379s-37.61,138.449-37.61,138.449l-27.254-5.996c0,0,21.703-123.173,30.524-153.166
			c8.176-27.799,47.421-138.449,47.421-138.449L509.151,676.142z"/><path fill="#0e538c" d="M379.043,577.756c0,0-21.026,37.61-14.547,45.786c6.479,8.176,78.756,139.108,78.756,139.108
			s109.233-24.643,113.321-62.253c0,0-103.379-139.811-119.96-140.629c-16.581-0.818-36.203,0.409-36.203,0.409
			S384.558,567.079,379.043,577.756z"/><path fill="#fcd2b1" d="M398.365,534.832c0,0-0.409,15.943,16.352,25.755c0,0,7.972,23.506-26.777,24.324
			c0,0-26.777-34.135-23.097-47.217C368.522,524.611,398.365,534.832,398.365,534.832z"/><path fill="#ffe3ca" d="M373.973,557.316L373.973,557.316c-15.654,0-28.344-12.69-28.344-28.344v-23.415
			c0-15.967,12.944-28.912,28.912-28.912h0c15.967,0,35.68,14.42,35.68,30.388l2.237,23.999l-9.005-3.195
			C403.452,544.117,390.254,557.316,373.973,557.316z"/><path fill="#0b4870" d="M388.758,490.885c0,0-3.111,17.374,14.694,21.462c0,0,9.005-4.701,6.768,8.994
			c-1.594,9.758-6.768,6.496-6.768,6.496l-3.794,14.463c0,0,16.636-9.103,15.848-20.958c-0.789-11.855-1.606-48.648-23.682-51.509
			s-45.377,2.862-48.239-2.453c0,0-4.687,6.601,0,16.352c0,0-6.541,0.409-6.541-2.862c0,0-2.453,15.035,8.585,24.687
			c0,0,5.608-17.674,18.867-17.738c0,0,8.217,2.759,8.012,7.052C372.508,494.871,386.946,503.787,388.758,490.885z"/><path fill="#0e538c" d="M375.275 584.91c0 0-53.629 64.357-54.719 76.159 0 0 20.713 33.605 25.073 33.605 4.361 0 44.372-62.138 44.372-62.138L375.275 584.91zM414.717 560.586c0 0 50.828-20.222 79.172-18.287l14.172 36.82-46.672 15.262L414.717 560.586zM1102.676 516.98c3.798 2.045 186.125 379.359-260.828 466.724 0 0 279.82 7.597 330.466-170.931C1212.883 669.772 1102.676 516.98 1102.676 516.98zM978.492 457.133l-15.004-4.439c-36.425-10.776-57.217-49.04-46.441-85.465l11.411-38.572 146.91 43.463-11.411 38.572C1053.181 447.117 1014.917 467.909 978.492 457.133z"/><ellipse cx="1001.913" cy="349.643" fill="#0b4870" rx="10.972" ry="76.283" transform="rotate(-73.519 1001.929 349.65)"/><path fill="#f2f2f2" d="M997.471,351.117c0,0,21.314-154.893,179.161-169.243l-2.11,6.331
		c0,0-132.102,2.532-169.665,162.912H997.471z"/><path fill="#ffbe55" d="M1100.307,128.909l43.303,47.197l-47.308,69.976l86.64-13.448l46.547,117.01l18.242-139.845
		l79.55,53.237l-64.545-91.94c0,0,73.271-59.324,74.682-60.223c1.411-0.899-108.67,10.004-108.67,10.004L1221.797,0l-34.29,112.189
		l-51.077-64.583c0,0,42.125,101.372,44.857,102.545C1184.018,151.325,1100.307,128.909,1100.307,128.909z"/></svg>