<svg xmlns="http://www.w3.org/2000/svg" version="1.1" xmlns:xlink="http://www.w3.org/1999/xlink" xmlns:svgjs="http://svgjs.com/svgjs" width="1920" height="1080" preserveAspectRatio="none" viewBox="0 0 1920 1080"><g mask="url(&quot;#SvgjsMask1054&quot;)" fill="none"><rect width="1920" height="1080" x="0" y="0" fill="#0e2a47"></rect><path d="M1194 220L1193 -297" stroke-width="8" stroke="url(#SvgjsLinearGradient1055)" stroke-linecap="round" class="Down"></path><path d="M882 314L881 1006" stroke-width="10" stroke="url(#SvgjsLinearGradient1055)" stroke-linecap="round" class="Down"></path><path d="M1732 99L1731 -284" stroke-width="10" stroke="url(#SvgjsLinearGradient1055)" stroke-linecap="round" class="Down"></path><path d="M1388 288L1387 -257" stroke-width="6" stroke="url(#SvgjsLinearGradient1055)" stroke-linecap="round" class="Down"></path><path d="M1597 954L1596 207" stroke-width="8" stroke="url(#SvgjsLinearGradient1056)" stroke-linecap="round" class="Up"></path><path d="M1059 50L1058 755" stroke-width="8" stroke="url(#SvgjsLinearGradient1056)" stroke-linecap="round" class="Up"></path><path d="M1674 307L1673 983" stroke-width="10" stroke="url(#SvgjsLinearGradient1055)" stroke-linecap="round" class="Down"></path><path d="M1010 892L1009 516" stroke-width="10" stroke="url(#SvgjsLinearGradient1056)" stroke-linecap="round" class="Up"></path><path d="M1483 808L1482 101" stroke-width="6" stroke="url(#SvgjsLinearGradient1055)" stroke-linecap="round" class="Down"></path><path d="M995 679L994 1208" stroke-width="10" stroke="url(#SvgjsLinearGradient1056)" stroke-linecap="round" class="Up"></path><path d="M334 830L333 1165" stroke-width="8" stroke="url(#SvgjsLinearGradient1055)" stroke-linecap="round" class="Down"></path><path d="M580 495L579 968" stroke-width="10" stroke="url(#SvgjsLinearGradient1056)" stroke-linecap="round" class="Up"></path><path d="M575 181L574 -249" stroke-width="6" stroke="url(#SvgjsLinearGradient1055)" stroke-linecap="round" class="Down"></path><path d="M1382 952L1381 1402" stroke-width="8" stroke="url(#SvgjsLinearGradient1056)" stroke-linecap="round" class="Up"></path><path d="M1826 19L1825 -494" stroke-width="6" stroke="url(#SvgjsLinearGradient1056)" stroke-linecap="round" class="Up"></path><path d="M43 576L42 1384" stroke-width="10" stroke="url(#SvgjsLinearGradient1056)" stroke-linecap="round" class="Up"></path><path d="M685 95L684 -382" stroke-width="8" stroke="url(#SvgjsLinearGradient1056)" stroke-linecap="round" class="Up"></path><path d="M877 367L876 1132" stroke-width="10" stroke="url(#SvgjsLinearGradient1055)" stroke-linecap="round" class="Down"></path><path d="M930 724L929 296" stroke-width="8" stroke="url(#SvgjsLinearGradient1056)" stroke-linecap="round" class="Up"></path><path d="M1413 672L1412 1321" stroke-width="6" stroke="url(#SvgjsLinearGradient1056)" stroke-linecap="round" class="Up"></path><path d="M1901 917L1900 496" stroke-width="8" stroke="url(#SvgjsLinearGradient1056)" stroke-linecap="round" class="Up"></path><path d="M847 565L846 265" stroke-width="10" stroke="url(#SvgjsLinearGradient1056)" stroke-linecap="round" class="Up"></path><path d="M1347 639L1346 1093" stroke-width="10" stroke="url(#SvgjsLinearGradient1055)" stroke-linecap="round" class="Down"></path><path d="M1263 723L1262 7" stroke-width="6" stroke="url(#SvgjsLinearGradient1056)" stroke-linecap="round" class="Up"></path><path d="M716 899L715 506" stroke-width="10" stroke="url(#SvgjsLinearGradient1055)" stroke-linecap="round" class="Down"></path><path d="M1267 436L1266 -287" stroke-width="8" stroke="url(#SvgjsLinearGradient1056)" stroke-linecap="round" class="Up"></path><path d="M92 629L91 1089" stroke-width="8" stroke="url(#SvgjsLinearGradient1055)" stroke-linecap="round" class="Down"></path><path d="M848 104L847 -521" stroke-width="8" stroke="url(#SvgjsLinearGradient1055)" stroke-linecap="round" class="Down"></path><path d="M58 283L57 -336" stroke-width="6" stroke="url(#SvgjsLinearGradient1055)" stroke-linecap="round" class="Down"></path><path d="M449 39L448 -292" stroke-width="8" stroke="url(#SvgjsLinearGradient1056)" stroke-linecap="round" class="Up"></path><path d="M456 118L455 -455" stroke-width="6" stroke="url(#SvgjsLinearGradient1055)" stroke-linecap="round" class="Down"></path><path d="M429 839L428 59" stroke-width="8" stroke="url(#SvgjsLinearGradient1056)" stroke-linecap="round" class="Up"></path><path d="M193 908L192 1460" stroke-width="10" stroke="url(#SvgjsLinearGradient1056)" stroke-linecap="round" class="Up"></path><path d="M678 907L677 213" stroke-width="10" stroke="url(#SvgjsLinearGradient1056)" stroke-linecap="round" class="Up"></path><path d="M1473 767L1472 1282" stroke-width="10" stroke="url(#SvgjsLinearGradient1055)" stroke-linecap="round" class="Down"></path><path d="M450 670L449 155" stroke-width="8" stroke="url(#SvgjsLinearGradient1056)" stroke-linecap="round" class="Up"></path><path d="M800 751L799 1055" stroke-width="6" stroke="url(#SvgjsLinearGradient1055)" stroke-linecap="round" class="Down"></path><path d="M1837 288L1836 -377" stroke-width="8" stroke="url(#SvgjsLinearGradient1056)" stroke-linecap="round" class="Up"></path><path d="M295 29L294 709" stroke-width="10" stroke="url(#SvgjsLinearGradient1055)" stroke-linecap="round" class="Down"></path><path d="M1598 1014L1597 1725" stroke-width="6" stroke="url(#SvgjsLinearGradient1055)" stroke-linecap="round" class="Down"></path><path d="M453 277L452 -494" stroke-width="10" stroke="url(#SvgjsLinearGradient1056)" stroke-linecap="round" class="Up"></path><path d="M1823 28L1822 730" stroke-width="6" stroke="url(#SvgjsLinearGradient1055)" stroke-linecap="round" class="Down"></path><path d="M629 960L628 1694" stroke-width="10" stroke="url(#SvgjsLinearGradient1055)" stroke-linecap="round" class="Down"></path><path d="M222 40L221 -730" stroke-width="6" stroke="url(#SvgjsLinearGradient1056)" stroke-linecap="round" class="Up"></path><path d="M1304 263L1303 -61" stroke-width="8" stroke="url(#SvgjsLinearGradient1056)" stroke-linecap="round" class="Up"></path><path d="M218 215L217 726" stroke-width="8" stroke="url(#SvgjsLinearGradient1055)" stroke-linecap="round" class="Down"></path><path d="M1558 193L1557 -610" stroke-width="6" stroke="url(#SvgjsLinearGradient1056)" stroke-linecap="round" class="Up"></path><path d="M125 295L124 -331" stroke-width="6" stroke="url(#SvgjsLinearGradient1055)" stroke-linecap="round" class="Down"></path></g><defs><mask id="SvgjsMask1054"><rect width="1920" height="1080" fill="#ffffff"></rect></mask><linearGradient x1="0%" y1="0%" x2="0%" y2="100%" id="SvgjsLinearGradient1055"><stop stop-color="rgba(28, 83, 142, 0)" offset="0"></stop><stop stop-color="#1c538e" offset="1"></stop></linearGradient><linearGradient x1="0%" y1="100%" x2="0%" y2="0%" id="SvgjsLinearGradient1056"><stop stop-color="rgba(28, 83, 142, 0)" offset="0"></stop><stop stop-color="#1c538e" offset="1"></stop></linearGradient></defs></svg>